<svg xmlns="http://www.w3.org/2000/svg" xmlns:xlink="http://www.w3.org/1999/xlink" width="520" zoomAndPan="magnify" viewBox="0 0 390 389.999986" height="520" preserveAspectRatio="xMidYMid meet" version="1.0"><defs><g/><clipPath id="8bb46fe46f"><path d="M 110 122 L 210.820312 122 L 210.820312 226.898438 L 110 226.898438 Z M 110 122 " clip-rule="nonzero"/></clipPath></defs><g fill="#231f20" fill-opacity="1"><g transform="translate(5.348513, 271.941014)"><g><path d="M 53.753906 0.789062 C 76.492188 -5.386719 77.148438 -24.445312 76.621094 -36.40625 C 76.492188 -39.296875 74.78125 -40.742188 71.761719 -41.136719 L 53.097656 -41.664062 C 50.335938 -42.058594 47.839844 -39.824219 47.707031 -37.195312 C 47.707031 -35.355469 47.445312 -28.78125 44.6875 -27.207031 C 36.40625 -23.65625 32.460938 -30.886719 32.332031 -44.6875 L 32.332031 -45.34375 C 32.332031 -59.535156 34.039062 -70.3125 42.453125 -66.765625 C 45.34375 -65.1875 45.605469 -58.484375 45.605469 -56.910156 C 45.738281 -54.148438 48.234375 -51.914062 50.996094 -52.308594 L 69.65625 -52.835938 C 72.546875 -53.226562 74.257812 -54.675781 74.386719 -57.433594 C 75.046875 -69.65625 74.386719 -88.84375 51.519531 -94.761719 C 25.761719 -101.988281 5.386719 -85.824219 0.921875 -58.484375 C -1.578125 -42.1875 0.921875 -24.183594 9.332031 -12.617188 C 19.058594 0.394531 37.71875 5.125 53.753906 0.789062 Z M 53.753906 0.789062 "/></g></g></g><g fill="#231f20" fill-opacity="1"><g transform="translate(87.354817, 271.941014)"><g><path d="M 4.601562 1.3125 C 30.886719 2.761719 52.441406 2.890625 62.035156 -4.863281 C 66.503906 -8.542969 69.261719 -13.800781 70.578125 -19.320312 C 73.601562 -31.804688 68.867188 -42.582031 56.25 -48.628906 C 51.78125 -50.601562 46.789062 -52.308594 43.632812 -53.886719 C 38.113281 -56.644531 39.429688 -61.113281 43.632812 -63.085938 C 47.3125 -64.792969 56.777344 -63.613281 62.824219 -63.613281 C 66.371094 -63.613281 68.472656 -65.320312 68.472656 -68.34375 C 68.738281 -86.613281 69 -89.109375 67.421875 -91.078125 C 65.058594 -93.972656 44.292969 -93.972656 38.378906 -93.707031 C 28.914062 -93.3125 16.824219 -92.527344 9.59375 -86.742188 C 2.234375 -80.960938 0 -73.335938 0 -63.875 C 0 -51.125 7.359375 -45.078125 24.3125 -38.769531 C 33.121094 -35.484375 32.855469 -28.78125 23.921875 -28.386719 C 16.824219 -28.125 1.050781 -30.886719 1.050781 -24.3125 L 1.050781 -4.863281 C 1.050781 -1.707031 1.839844 0.65625 4.601562 1.3125 Z M 4.601562 1.3125 "/></g></g></g><g fill="#231f20" fill-opacity="1"><g transform="translate(164.104319, 271.941014)"><g><path d="M 26.023438 -0.132812 C 35.617188 2.890625 50.863281 2.101562 59.800781 -4.074219 C 72.941406 -13.011719 77.015625 -27.074219 77.015625 -43.109375 C 76.226562 -64.136719 72.941406 -79.644531 59.800781 -88.714844 C 50.863281 -94.761719 35.617188 -95.679688 26.023438 -92.527344 C 7.097656 -86.085938 0.789062 -67.816406 0 -42.058594 C 0.789062 -16.296875 6.964844 -6.308594 26.023438 -0.132812 Z M 30.230469 -45.078125 C 30.097656 -73.863281 47.050781 -71.761719 47.050781 -44.027344 C 46.261719 -22.605469 30.492188 -23.261719 30.230469 -45.078125 Z M 30.230469 -45.078125 "/></g></g></g><g fill="#231f20" fill-opacity="1"><g transform="translate(246.37348, 271.941014)"><g><path d="M 4.730469 0 L 27.601562 -0.132812 C 28.78125 -0.132812 29.964844 -0.65625 30.886719 -1.707031 C 31.804688 -2.628906 32.332031 -3.941406 32.199219 -5.386719 L 31.542969 -28.257812 L 45.605469 -29.046875 C 46.527344 -29.175781 47.445312 -29.570312 48.234375 -30.230469 C 49.023438 -30.886719 49.417969 -31.542969 49.417969 -32.460938 L 49.941406 -46.921875 C 49.941406 -47.972656 49.546875 -48.890625 48.890625 -49.546875 C 48.101562 -50.207031 47.183594 -50.46875 46.132812 -50.46875 L 30.886719 -50.601562 L 30.492188 -63.480469 L 55.332031 -64.664062 C 56.644531 -64.792969 57.828125 -65.1875 58.878906 -66.109375 C 59.929688 -67.027344 60.457031 -67.949219 60.457031 -69.132812 L 60.457031 -87.925781 C 60.457031 -89.238281 59.929688 -90.292969 59.011719 -91.210938 C 57.960938 -92.132812 56.777344 -92.527344 55.332031 -92.527344 L 23.394531 -92.394531 L 4.46875 -92.527344 C 3.285156 -92.527344 2.367188 -92 1.445312 -90.949219 C 0.527344 -89.898438 0 -88.714844 0 -87.398438 L 0.261719 -5.125 C 0.261719 -3.679688 0.65625 -2.367188 1.578125 -1.445312 C 2.496094 -0.527344 3.546875 0 4.730469 0 Z M 4.730469 0 "/></g></g></g><g fill="#231f20" fill-opacity="1"><g transform="translate(312.08366, 271.941014)"><g><path d="M 21.027344 0 L 46.261719 -0.132812 C 47.578125 -0.132812 48.761719 -0.65625 49.941406 -1.707031 C 50.996094 -2.628906 51.519531 -3.941406 51.386719 -5.386719 L 51.125 -60.851562 L 61.769531 -60.851562 C 64.53125 -61.113281 66.371094 -62.953125 66.632812 -65.714844 L 67.292969 -88.1875 C 67.421875 -91.078125 65.058594 -93.578125 62.164062 -93.578125 L 5.386719 -93.183594 C 2.496094 -93.183594 0.527344 -90.949219 0.261719 -88.058594 L 0 -65.84375 C 0 -62.824219 2.496094 -60.457031 5.257812 -60.71875 L 16.691406 -60.71875 L 16.035156 -5.125 C 16.035156 -3.679688 16.558594 -2.367188 17.480469 -1.445312 C 18.398438 -0.527344 19.582031 0 21.027344 0 Z M 21.027344 0 "/></g></g></g><path fill="#fdfdfd" d="M 131.035156 96.011719 C 131.035156 96.011719 132.058594 91.132812 134.8125 87.433594 C 138.511719 82.554688 144.808594 78.773438 151.261719 82.867188 C 159.445312 88.140625 157.007812 96.40625 153.070312 101.835938 C 150.472656 105.375 146.777344 107.421875 146.777344 107.421875 Z M 131.035156 96.011719 " fill-opacity="1" fill-rule="nonzero"/><path fill="#231f20" d="M 146.777344 108.367188 C 146.933594 108.367188 147.089844 108.367188 147.246094 108.289062 C 147.40625 108.210938 151.183594 106.085938 153.859375 102.386719 C 156.847656 98.214844 158.1875 93.648438 157.480469 89.949219 C 156.847656 86.804688 154.960938 84.207031 151.8125 82.160156 C 144.808594 77.671875 137.960938 81.921875 134.183594 86.960938 C 131.269531 90.816406 130.25 95.695312 130.25 95.933594 C 130.167969 96.40625 130.484375 96.875 130.957031 97.035156 C 131.429688 97.113281 131.902344 96.796875 132.058594 96.324219 C 132.058594 96.246094 133.082031 91.605469 135.679688 88.0625 C 139.140625 83.496094 144.964844 79.878906 150.867188 83.734375 C 153.621094 85.464844 155.273438 87.746094 155.746094 90.34375 C 156.378906 93.648438 155.195312 97.664062 152.441406 101.441406 C 150.003906 104.824219 146.460938 106.792969 146.382812 106.792969 C 145.910156 107.027344 145.753906 107.578125 145.988281 108.050781 C 146.144531 108.210938 146.460938 108.367188 146.777344 108.367188 Z M 146.777344 108.367188 " fill-opacity="1" fill-rule="nonzero"/><path fill="#fdfdfd" d="M 146.066406 90.421875 C 146.066406 90.421875 141.894531 92.863281 140.320312 97.742188 Z M 146.066406 90.421875 " fill-opacity="1" fill-rule="nonzero"/><path fill="#231f20" d="M 140.320312 98.609375 C 140.714844 98.609375 141.03125 98.371094 141.1875 97.976562 C 142.605469 93.492188 146.460938 91.132812 146.460938 91.132812 C 146.933594 90.894531 147.011719 90.34375 146.777344 89.871094 C 146.539062 89.480469 145.988281 89.320312 145.515625 89.558594 C 145.359375 89.636719 141.03125 92.234375 139.378906 97.425781 C 139.21875 97.898438 139.457031 98.371094 140.007812 98.53125 C 140.164062 98.609375 140.242188 98.609375 140.320312 98.609375 Z M 140.320312 98.609375 " fill-opacity="1" fill-rule="nonzero"/><path fill="#fdfdfd" d="M 209.5 187.699219 C 209.5 187.699219 203.914062 158.65625 192.421875 148.820312 C 180.933594 139.0625 123.953125 123.398438 123.953125 123.398438 L 146.304688 175.105469 C 146.304688 175.105469 121.90625 185.808594 117.65625 196.589844 C 112.699219 208.949219 111.046875 211.308594 111.046875 217.605469 C 111.046875 217.605469 112.933594 225.945312 118.757812 225.945312 C 124.582031 225.945312 130.957031 225.554688 136.386719 220.042969 C 138.667969 217.683594 141.34375 212.09375 141.34375 212.09375 L 157.320312 207.53125 C 157.320312 207.53125 172.351562 204.699219 178.964844 193.996094 C 180.695312 191.238281 181.246094 187.777344 181.246094 187.777344 Z M 209.5 187.699219 " fill-opacity="1" fill-rule="nonzero"/><g clip-path="url(#8bb46fe46f)"><path fill="#231f20" d="M 118.679688 226.8125 C 112.226562 226.8125 110.179688 218.15625 110.101562 217.761719 C 110.101562 212.410156 111.125 209.8125 114.035156 202.886719 C 114.824219 201 115.6875 198.875 116.789062 196.199219 C 120.804688 186.203125 140.714844 176.601562 145.121094 174.632812 L 123.085938 123.792969 C 122.929688 123.476562 123.007812 123.085938 123.242188 122.847656 C 123.480469 122.613281 123.792969 122.535156 124.1875 122.535156 C 126.550781 123.164062 181.5625 138.351562 193.050781 148.109375 C 204.621094 157.949219 210.207031 186.28125 210.367188 187.460938 C 210.445312 187.699219 210.367188 188.011719 210.207031 188.171875 C 210.050781 188.40625 209.816406 188.484375 209.5 188.484375 L 181.875 188.484375 C 181.640625 189.664062 180.933594 192.183594 179.59375 194.308594 C 172.824219 205.25 158.03125 208.160156 157.398438 208.238281 L 141.894531 212.644531 C 141.265625 213.984375 138.984375 218.390625 136.9375 220.515625 C 131.429688 226.339844 124.898438 226.8125 118.679688 226.8125 Z M 111.910156 217.605469 C 111.910156 217.605469 113.722656 225.082031 118.679688 225.082031 C 124.738281 225.082031 130.640625 224.609375 135.601562 219.414062 C 137.726562 217.210938 140.402344 211.703125 140.402344 211.703125 C 140.480469 211.464844 140.714844 211.308594 140.953125 211.230469 L 156.929688 206.664062 C 157.164062 206.585938 171.722656 203.753906 178.019531 193.523438 C 179.59375 190.925781 180.144531 187.621094 180.144531 187.621094 C 180.222656 187.148438 180.617188 186.832031 181.011719 186.832031 L 208.242188 186.832031 C 207.140625 181.558594 201.550781 157.949219 191.714844 149.605469 C 181.640625 141.027344 135.207031 127.648438 125.367188 124.894531 L 147.011719 174.871094 C 147.167969 175.34375 147.011719 175.894531 146.539062 176.050781 C 146.304688 176.128906 122.457031 186.753906 118.363281 196.984375 C 117.339844 199.582031 116.398438 201.785156 115.609375 203.675781 C 112.855469 210.441406 111.910156 212.804688 111.910156 217.605469 Z M 111.910156 217.605469 " fill-opacity="1" fill-rule="nonzero"/></g><path fill="#fdfdfd" d="M 102.308594 190.136719 L 87.671875 178.882812 L 74.210938 139.613281 C 74.210938 139.613281 61.933594 153.855469 58.316406 170.933594 C 54.617188 188.011719 60.28125 196.511719 67.601562 198.714844 C 74.84375 200.917969 81.769531 200.289062 81.769531 200.289062 C 81.769531 200.289062 88.851562 210.050781 97.195312 206.824219 C 104.277344 204.066406 106.714844 196.039062 102.308594 190.136719 Z M 102.308594 190.136719 " fill-opacity="1" fill-rule="nonzero"/><path fill="#231f20" d="M 93.652344 208.398438 C 87.511719 208.398438 82.632812 202.808594 81.375 201.234375 C 79.644531 201.3125 73.660156 201.550781 67.285156 199.582031 C 63.746094 198.480469 52.570312 193.207031 57.371094 170.699219 C 60.992188 153.699219 73.347656 139.21875 73.503906 139.0625 C 73.742188 138.824219 74.054688 138.667969 74.371094 138.746094 C 74.683594 138.824219 74.921875 139.0625 75.078125 139.375 L 88.457031 178.332031 L 102.859375 189.429688 C 102.9375 189.507812 103.015625 189.507812 103.015625 189.585938 C 105.222656 192.578125 105.929688 196.277344 104.90625 199.738281 C 103.882812 203.359375 101.128906 206.191406 97.429688 207.6875 C 96.171875 208.160156 94.910156 208.398438 93.652344 208.398438 Z M 81.769531 199.347656 C 82.082031 199.347656 82.320312 199.503906 82.476562 199.738281 C 82.554688 199.816406 89.246094 208.867188 96.800781 205.957031 C 99.949219 204.699219 102.308594 202.257812 103.175781 199.1875 C 103.960938 196.355469 103.410156 193.285156 101.601562 190.765625 L 87.121094 179.59375 C 86.960938 179.511719 86.882812 179.355469 86.804688 179.199219 L 73.820312 141.421875 C 70.828125 145.199219 62.015625 157.320312 59.101562 171.09375 C 56.113281 185.257812 59.339844 195.253906 67.839844 197.851562 C 74.84375 199.976562 81.609375 199.347656 81.691406 199.347656 C 81.691406 199.347656 81.769531 199.347656 81.769531 199.347656 Z M 81.769531 199.347656 " fill-opacity="1" fill-rule="nonzero"/><path fill="#fdfdfd" d="M 83.65625 97.742188 C 76.417969 102.464844 66.972656 117.101562 64.53125 133.472656 C 62.328125 148.269531 63.980469 155.980469 68.703125 164.402344 C 74.371094 174.554688 88.773438 181.953125 105.851562 181.953125 C 122.929688 181.953125 128.832031 182.425781 141.660156 179.277344 C 154.488281 176.128906 172.589844 163.066406 161.335938 137.800781 C 161.335938 137.800781 159.445312 110.097656 143.785156 97.820312 C 136.230469 92.785156 131.269531 88.847656 116.710938 88.296875 C 102.152344 87.667969 89.402344 93.964844 83.65625 97.742188 Z M 83.65625 97.742188 " fill-opacity="1" fill-rule="nonzero"/><path fill="#231f20" d="M 115.765625 182.820312 C 114.429688 182.820312 113.011719 182.820312 111.4375 182.820312 L 105.851562 182.820312 C 89.167969 182.820312 73.898438 175.578125 67.917969 164.796875 C 63.507812 156.847656 61.382812 149.132812 63.667969 133.316406 C 66.027344 117.023438 75.472656 102.070312 83.183594 96.957031 C 90.738281 91.917969 103.570312 86.722656 116.710938 87.273438 C 130.640625 87.824219 135.992188 91.445312 142.839844 96.011719 L 144.257812 96.957031 C 159.683594 109.074219 161.964844 134.96875 162.199219 137.488281 C 166.609375 147.402344 166.921875 156.296875 163.222656 163.929688 C 158.738281 173.058594 149.292969 178.253906 141.894531 180.0625 C 131.820312 182.582031 126 182.820312 115.765625 182.820312 Z M 83.65625 97.742188 L 84.128906 98.53125 C 76.730469 103.410156 67.679688 117.890625 65.398438 133.628906 C 63.117188 149.054688 65.082031 156.140625 69.410156 164.007812 C 75.15625 174.238281 89.71875 181.085938 105.773438 181.085938 L 111.359375 181.085938 C 124.1875 181.085938 130.167969 181.164062 141.34375 178.410156 C 148.347656 176.679688 157.320312 171.800781 161.492188 163.222656 C 164.957031 156.058594 164.640625 147.640625 160.390625 138.195312 C 160.3125 138.117188 160.3125 137.957031 160.3125 137.878906 C 160.3125 137.644531 158.265625 110.414062 143.15625 98.53125 L 141.816406 97.664062 C 134.96875 93.097656 130.011719 89.792969 116.632812 89.242188 C 100.261719 88.375 86.726562 96.796875 84.207031 98.449219 Z M 83.65625 97.742188 " fill-opacity="1" fill-rule="nonzero"/><path fill="#fdfdfd" d="M 102.308594 165.582031 C 102.308594 165.582031 107.109375 167.785156 109.390625 162.59375 Z M 102.308594 165.582031 " fill-opacity="1" fill-rule="nonzero"/><path fill="#231f20" d="M 104.671875 166.921875 C 103.175781 166.921875 102.074219 166.371094 101.996094 166.371094 C 101.523438 166.132812 101.363281 165.660156 101.523438 165.191406 C 101.757812 164.71875 102.230469 164.480469 102.703125 164.71875 C 102.703125 164.71875 104.433594 165.503906 106.085938 164.875 C 107.109375 164.480469 107.976562 163.617188 108.605469 162.199219 C 108.761719 161.726562 109.3125 161.492188 109.785156 161.726562 C 110.257812 161.960938 110.414062 162.433594 110.257812 162.90625 C 109.472656 164.71875 108.289062 165.898438 106.714844 166.527344 C 106.007812 166.84375 105.300781 166.921875 104.671875 166.921875 Z M 104.671875 166.921875 " fill-opacity="1" fill-rule="nonzero"/><path fill="#fdfdfd" d="M 114.585938 174.476562 C 114.585938 174.476562 109.078125 174.003906 106.714844 165.582031 Z M 114.585938 174.476562 " fill-opacity="1" fill-rule="nonzero"/><path fill="#231f20" d="M 114.585938 175.421875 C 114.507812 175.421875 114.507812 175.421875 114.585938 175.421875 C 114.273438 175.421875 108.371094 174.792969 105.851562 165.898438 C 105.695312 165.425781 106.007812 164.953125 106.480469 164.796875 C 107.03125 164.71875 107.425781 164.953125 107.582031 165.425781 C 109.707031 173.058594 114.429688 173.609375 114.664062 173.6875 C 115.136719 173.769531 115.53125 174.160156 115.453125 174.632812 C 115.453125 175.027344 115.058594 175.421875 114.585938 175.421875 Z M 114.585938 175.421875 " fill-opacity="1" fill-rule="nonzero"/><path fill="#231f20" d="M 115.296875 139.613281 C 115.296875 139.894531 115.265625 140.175781 115.210938 140.457031 C 115.15625 140.734375 115.074219 141.003906 114.964844 141.269531 C 114.855469 141.53125 114.722656 141.78125 114.566406 142.015625 C 114.40625 142.253906 114.226562 142.472656 114.027344 142.671875 C 113.824219 142.875 113.609375 143.050781 113.371094 143.210938 C 113.136719 143.367188 112.886719 143.5 112.621094 143.609375 C 112.359375 143.71875 112.089844 143.800781 111.8125 143.855469 C 111.53125 143.914062 111.25 143.941406 110.964844 143.941406 C 110.683594 143.941406 110.402344 143.914062 110.121094 143.855469 C 109.84375 143.800781 109.574219 143.71875 109.308594 143.609375 C 109.046875 143.5 108.796875 143.367188 108.5625 143.210938 C 108.324219 143.050781 108.105469 142.875 107.90625 142.671875 C 107.703125 142.472656 107.523438 142.253906 107.367188 142.015625 C 107.210938 141.78125 107.074219 141.53125 106.96875 141.269531 C 106.859375 141.003906 106.777344 140.734375 106.722656 140.457031 C 106.664062 140.175781 106.636719 139.894531 106.636719 139.613281 C 106.636719 139.328125 106.664062 139.046875 106.722656 138.765625 C 106.777344 138.488281 106.859375 138.21875 106.96875 137.953125 C 107.074219 137.691406 107.210938 137.441406 107.367188 137.207031 C 107.523438 136.96875 107.703125 136.75 107.90625 136.550781 C 108.105469 136.351562 108.324219 136.171875 108.5625 136.011719 C 108.796875 135.855469 109.046875 135.722656 109.308594 135.613281 C 109.574219 135.503906 109.84375 135.421875 110.121094 135.367188 C 110.402344 135.3125 110.683594 135.28125 110.964844 135.28125 C 111.25 135.28125 111.53125 135.3125 111.8125 135.367188 C 112.089844 135.421875 112.359375 135.503906 112.621094 135.613281 C 112.886719 135.722656 113.136719 135.855469 113.371094 136.011719 C 113.609375 136.171875 113.824219 136.351562 114.027344 136.550781 C 114.226562 136.75 114.40625 136.96875 114.566406 137.207031 C 114.722656 137.441406 114.855469 137.691406 114.964844 137.953125 C 115.074219 138.21875 115.15625 138.488281 115.210938 138.765625 C 115.265625 139.046875 115.296875 139.328125 115.296875 139.613281 Z M 115.296875 139.613281 " fill-opacity="1" fill-rule="nonzero"/><path fill="#231f20" d="M 159.445312 139.613281 C 159.445312 139.894531 159.417969 140.175781 159.363281 140.457031 C 159.308594 140.734375 159.226562 141.003906 159.117188 141.269531 C 159.007812 141.53125 158.875 141.78125 158.71875 142.015625 C 158.558594 142.253906 158.378906 142.472656 158.179688 142.671875 C 157.976562 142.875 157.757812 143.050781 157.523438 143.210938 C 157.285156 143.367188 157.035156 143.5 156.773438 143.609375 C 156.511719 143.71875 156.242188 143.800781 155.960938 143.855469 C 155.683594 143.914062 155.402344 143.941406 155.117188 143.941406 C 154.832031 143.941406 154.550781 143.914062 154.273438 143.855469 C 153.996094 143.800781 153.722656 143.71875 153.460938 143.609375 C 153.199219 143.5 152.949219 143.367188 152.714844 143.210938 C 152.476562 143.050781 152.257812 142.875 152.058594 142.671875 C 151.855469 142.472656 151.675781 142.253906 151.519531 142.015625 C 151.359375 141.78125 151.226562 141.53125 151.117188 141.269531 C 151.011719 141.003906 150.929688 140.734375 150.871094 140.457031 C 150.816406 140.175781 150.789062 139.894531 150.789062 139.613281 C 150.789062 139.328125 150.816406 139.046875 150.871094 138.765625 C 150.929688 138.488281 151.011719 138.21875 151.117188 137.953125 C 151.226562 137.691406 151.359375 137.441406 151.519531 137.207031 C 151.675781 136.96875 151.855469 136.75 152.058594 136.550781 C 152.257812 136.351562 152.476562 136.171875 152.714844 136.011719 C 152.949219 135.855469 153.199219 135.722656 153.460938 135.613281 C 153.722656 135.503906 153.996094 135.421875 154.273438 135.367188 C 154.550781 135.3125 154.832031 135.28125 155.117188 135.28125 C 155.402344 135.28125 155.683594 135.3125 155.960938 135.367188 C 156.242188 135.421875 156.511719 135.503906 156.773438 135.613281 C 157.035156 135.722656 157.285156 135.855469 157.523438 136.011719 C 157.757812 136.171875 157.976562 136.351562 158.179688 136.550781 C 158.378906 136.75 158.558594 136.96875 158.71875 137.207031 C 158.875 137.441406 159.007812 137.691406 159.117188 137.953125 C 159.226562 138.21875 159.308594 138.488281 159.363281 138.765625 C 159.417969 139.046875 159.445312 139.328125 159.445312 139.613281 Z M 159.445312 139.613281 " fill-opacity="1" fill-rule="nonzero"/><path fill="#fdfdfd" d="M 94.4375 96.011719 C 94.4375 96.011719 93.414062 91.132812 90.660156 87.433594 C 86.960938 82.472656 80.585938 78.773438 74.210938 82.867188 C 66.027344 88.140625 68.46875 96.40625 72.402344 101.835938 C 75 105.375 78.699219 107.421875 78.699219 107.421875 Z M 94.4375 96.011719 " fill-opacity="1" fill-rule="nonzero"/><path fill="#231f20" d="M 78.699219 108.367188 C 78.542969 108.367188 78.382812 108.367188 78.226562 108.289062 C 78.070312 108.210938 74.292969 106.085938 71.617188 102.386719 C 68.625 98.214844 67.285156 93.648438 67.996094 89.949219 C 68.625 86.804688 70.515625 84.207031 73.660156 82.160156 C 80.667969 77.671875 87.511719 81.921875 91.292969 86.960938 C 94.203125 90.816406 95.226562 95.695312 95.226562 95.933594 C 95.304688 96.40625 94.988281 96.875 94.519531 97.035156 C 94.046875 97.113281 93.574219 96.796875 93.414062 96.324219 C 93.414062 96.246094 92.394531 91.605469 89.796875 88.0625 C 86.410156 83.339844 80.585938 79.796875 74.683594 83.574219 C 71.929688 85.308594 70.277344 87.589844 69.804688 90.1875 C 69.175781 93.492188 70.355469 97.507812 73.109375 101.285156 C 75.550781 104.667969 79.09375 106.636719 79.171875 106.636719 C 79.644531 106.871094 79.800781 107.421875 79.566406 107.894531 C 79.328125 108.210938 79.011719 108.367188 78.699219 108.367188 Z M 78.699219 108.367188 " fill-opacity="1" fill-rule="nonzero"/><path fill="#fdfdfd" d="M 79.40625 90.421875 C 79.40625 90.421875 83.578125 92.863281 85.152344 97.742188 Z M 79.40625 90.421875 " fill-opacity="1" fill-rule="nonzero"/><path fill="#231f20" d="M 85.074219 98.609375 C 84.679688 98.609375 84.367188 98.371094 84.207031 97.976562 C 82.792969 93.492188 78.933594 91.132812 78.933594 91.132812 C 78.460938 90.894531 78.382812 90.34375 78.621094 89.871094 C 78.855469 89.480469 79.40625 89.320312 79.878906 89.558594 C 80.035156 89.636719 84.367188 92.234375 86.019531 97.425781 C 86.175781 97.898438 85.9375 98.371094 85.386719 98.53125 C 85.308594 98.609375 85.230469 98.609375 85.074219 98.609375 Z M 85.074219 98.609375 " fill-opacity="1" fill-rule="nonzero"/><path fill="#231f20" d="M 157.242188 146.457031 C 157.242188 149.921875 153.230469 153.933594 148.269531 153.933594 C 143.3125 153.933594 139.300781 149.921875 139.300781 146.457031 C 139.300781 142.996094 143.3125 141.34375 148.269531 141.34375 C 153.230469 141.421875 157.242188 142.996094 157.242188 146.457031 Z M 157.242188 146.457031 " fill-opacity="1" fill-rule="nonzero"/><path fill="#231f20" d="M 150.003906 172.507812 C 149.53125 172.507812 149.136719 172.113281 149.136719 171.644531 L 149.136719 153.777344 C 149.136719 153.304688 149.53125 152.910156 150.003906 152.910156 C 150.472656 152.910156 150.867188 153.304688 150.867188 153.777344 L 150.867188 171.5625 C 150.945312 172.113281 150.472656 172.507812 150.003906 172.507812 Z M 150.003906 172.507812 " fill-opacity="1" fill-rule="nonzero"/><path fill="#fdfdfd" d="M 181.640625 186.910156 C 182.664062 185.179688 183.136719 179.984375 183.527344 178.019531 Z M 181.640625 186.910156 " fill-opacity="1" fill-rule="nonzero"/><path fill="#231f20" d="M 181.640625 187.777344 C 181.484375 187.777344 181.324219 187.699219 181.167969 187.621094 C 180.773438 187.382812 180.617188 186.832031 180.851562 186.359375 C 181.5625 185.179688 182.035156 181.953125 182.269531 179.75 C 182.347656 178.960938 182.507812 178.253906 182.585938 177.78125 C 182.664062 177.308594 183.136719 176.996094 183.609375 177.074219 C 184.078125 177.152344 184.394531 177.625 184.316406 178.097656 C 184.238281 178.570312 184.160156 179.277344 184 179.984375 C 183.609375 182.582031 183.214844 185.808594 182.347656 187.226562 C 182.269531 187.621094 181.953125 187.777344 181.640625 187.777344 Z M 181.640625 187.777344 " fill-opacity="1" fill-rule="nonzero"/></svg>