<svg xmlns="http://www.w3.org/2000/svg" xmlns:xlink="http://www.w3.org/1999/xlink" width="520" zoomAndPan="magnify" viewBox="0 0 390 195.000001" height="260" preserveAspectRatio="xMidYMid meet" version="1.0"><defs><g/><clipPath id="042550236a"><path d="M 117 45 L 209.320312 45 L 209.320312 140.730469 L 117 140.730469 Z M 117 45 " clip-rule="nonzero"/></clipPath></defs><g fill="#ffffff" fill-opacity="1"><g transform="translate(22.3153, 183.022117)"><g><path d="M 48.949219 0.71875 C 69.652344 -4.90625 70.25 -22.261719 69.773438 -33.152344 C 69.652344 -35.785156 68.097656 -37.101562 65.34375 -37.460938 L 48.351562 -37.9375 C 45.835938 -38.296875 43.5625 -36.261719 43.445312 -33.867188 C 43.445312 -32.195312 43.203125 -26.210938 40.691406 -24.773438 C 33.152344 -21.542969 29.5625 -28.125 29.441406 -40.691406 L 29.441406 -41.289062 C 29.441406 -54.214844 30.996094 -64.027344 38.65625 -60.796875 C 41.289062 -59.359375 41.527344 -53.257812 41.527344 -51.820312 C 41.648438 -49.308594 43.921875 -47.273438 46.433594 -47.632812 L 63.429688 -48.109375 C 66.0625 -48.46875 67.617188 -49.785156 67.738281 -52.300781 C 68.335938 -63.429688 67.738281 -80.902344 46.914062 -86.289062 C 23.457031 -92.871094 4.90625 -78.148438 0.835938 -53.257812 C -1.4375 -38.417969 0.835938 -22.019531 8.496094 -11.488281 C 17.351562 0.359375 34.347656 4.667969 48.949219 0.71875 Z M 48.949219 0.71875 "/></g></g></g><g fill="#ffffff" fill-opacity="1"><g transform="translate(96.987922, 183.022117)"><g><path d="M 4.1875 1.195312 C 28.125 2.511719 47.75 2.632812 56.488281 -4.429688 C 60.558594 -7.777344 63.070312 -12.566406 64.265625 -17.59375 C 67.019531 -28.960938 62.710938 -38.777344 51.222656 -44.28125 C 47.152344 -46.078125 42.605469 -47.632812 39.734375 -49.066406 C 34.707031 -51.582031 35.902344 -55.652344 39.734375 -57.445312 C 43.085938 -59 51.703125 -57.925781 57.207031 -57.925781 C 60.4375 -57.925781 62.351562 -59.480469 62.351562 -62.234375 C 62.59375 -78.867188 62.832031 -81.140625 61.394531 -82.9375 C 59.242188 -85.570312 40.332031 -85.570312 34.945312 -85.332031 C 26.328125 -84.972656 15.320312 -84.253906 8.738281 -78.988281 C 2.035156 -73.722656 0 -66.78125 0 -58.164062 C 0 -46.554688 6.703125 -41.050781 22.140625 -35.304688 C 30.160156 -32.3125 29.917969 -26.210938 21.78125 -25.851562 C 15.320312 -25.609375 0.957031 -28.125 0.957031 -22.140625 L 0.957031 -4.429688 C 0.957031 -1.554688 1.675781 0.597656 4.1875 1.195312 Z M 4.1875 1.195312 "/></g></g></g><g fill="#ffffff" fill-opacity="1"><g transform="translate(166.873835, 183.022117)"><g><path d="M 23.695312 -0.121094 C 32.433594 2.632812 46.316406 1.914062 54.453125 -3.710938 C 66.421875 -11.847656 70.132812 -24.652344 70.132812 -39.253906 C 69.414062 -58.402344 66.421875 -72.523438 54.453125 -80.78125 C 46.316406 -86.289062 32.433594 -87.125 23.695312 -84.253906 C 6.460938 -78.390625 0.71875 -61.753906 0 -38.296875 C 0.71875 -14.839844 6.34375 -5.746094 23.695312 -0.121094 Z M 27.527344 -41.050781 C 27.40625 -67.257812 42.84375 -65.34375 42.84375 -40.09375 C 42.125 -20.585938 27.765625 -21.183594 27.527344 -41.050781 Z M 27.527344 -41.050781 "/></g></g></g><g fill="#ffffff" fill-opacity="1"><g transform="translate(241.785795, 183.022117)"><g><path d="M 4.308594 0 L 25.132812 -0.121094 C 26.210938 -0.121094 27.285156 -0.597656 28.125 -1.554688 C 28.960938 -2.394531 29.441406 -3.589844 29.320312 -4.90625 L 28.722656 -25.730469 L 41.527344 -26.449219 C 42.367188 -26.570312 43.203125 -26.925781 43.921875 -27.527344 C 44.640625 -28.125 45 -28.722656 45 -29.5625 L 45.476562 -42.726562 C 45.476562 -43.683594 45.117188 -44.519531 44.519531 -45.117188 C 43.800781 -45.71875 42.964844 -45.957031 42.007812 -45.957031 L 28.125 -46.078125 L 27.765625 -57.804688 L 50.382812 -58.882812 C 51.582031 -59 52.660156 -59.359375 53.617188 -60.199219 C 54.574219 -61.035156 55.050781 -61.875 55.050781 -62.949219 L 55.050781 -80.066406 C 55.050781 -81.261719 54.574219 -82.21875 53.734375 -83.058594 C 52.777344 -83.894531 51.703125 -84.253906 50.382812 -84.253906 L 21.304688 -84.132812 L 4.070312 -84.253906 C 2.992188 -84.253906 2.152344 -83.773438 1.316406 -82.816406 C 0.480469 -81.859375 0 -80.78125 0 -79.585938 L 0.238281 -4.667969 C 0.238281 -3.351562 0.597656 -2.152344 1.4375 -1.316406 C 2.273438 -0.480469 3.230469 0 4.308594 0 Z M 4.308594 0 "/></g></g></g><g fill="#ffffff" fill-opacity="1"><g transform="translate(301.619623, 183.022117)"><g><path d="M 19.148438 0 L 42.125 -0.121094 C 43.324219 -0.121094 44.402344 -0.597656 45.476562 -1.554688 C 46.433594 -2.394531 46.914062 -3.589844 46.792969 -4.90625 L 46.554688 -55.410156 L 56.25 -55.410156 C 58.761719 -55.652344 60.4375 -57.324219 60.675781 -59.839844 L 61.277344 -80.304688 C 61.394531 -82.9375 59.242188 -85.210938 56.609375 -85.210938 L 4.90625 -84.851562 C 2.273438 -84.851562 0.480469 -82.816406 0.238281 -80.183594 L 0 -59.960938 C 0 -57.207031 2.273438 -55.050781 4.789062 -55.292969 L 15.199219 -55.292969 L 14.601562 -4.667969 C 14.601562 -3.351562 15.078125 -2.152344 15.917969 -1.316406 C 16.753906 -0.480469 17.832031 0 19.148438 0 Z M 19.148438 0 "/></g></g></g><path fill="#ffffff" d="M 136.757812 21.648438 C 136.757812 21.648438 137.6875 17.207031 140.195312 13.835938 C 143.5625 9.394531 149.296875 5.953125 155.171875 9.679688 C 162.625 14.484375 160.40625 22.007812 156.820312 26.953125 C 154.457031 30.175781 151.089844 32.039062 151.089844 32.039062 Z M 136.757812 21.648438 " fill-opacity="1" fill-rule="nonzero"/><path fill="#ffffff" d="M 151.089844 32.898438 C 151.230469 32.898438 151.375 32.898438 151.519531 32.828125 C 151.664062 32.757812 155.101562 30.820312 157.539062 27.453125 C 160.261719 23.65625 161.480469 19.5 160.835938 16.128906 C 160.261719 13.265625 158.542969 10.898438 155.675781 9.035156 C 149.296875 4.953125 143.0625 8.820312 139.621094 13.40625 C 136.972656 16.917969 136.039062 21.363281 136.039062 21.578125 C 135.96875 22.007812 136.253906 22.4375 136.683594 22.582031 C 137.113281 22.652344 137.542969 22.367188 137.6875 21.933594 C 137.6875 21.863281 138.621094 17.636719 140.984375 14.410156 C 144.136719 10.253906 149.441406 6.957031 154.816406 10.46875 C 157.324219 12.046875 158.828125 14.125 159.257812 16.488281 C 159.832031 19.5 158.757812 23.152344 156.25 26.59375 C 154.027344 29.675781 150.800781 31.464844 150.730469 31.464844 C 150.300781 31.679688 150.15625 32.183594 150.371094 32.613281 C 150.515625 32.757812 150.800781 32.898438 151.089844 32.898438 Z M 151.089844 32.898438 " fill-opacity="1" fill-rule="nonzero"/><path fill="#ffffff" d="M 150.445312 16.5625 C 150.445312 16.5625 146.644531 18.78125 145.210938 23.226562 Z M 150.445312 16.5625 " fill-opacity="1" fill-rule="nonzero"/><path fill="#ffffff" d="M 145.210938 24.011719 C 145.570312 24.011719 145.859375 23.796875 146 23.441406 C 147.289062 19.355469 150.800781 17.207031 150.800781 17.207031 C 151.230469 16.992188 151.304688 16.488281 151.089844 16.058594 C 150.875 15.699219 150.371094 15.558594 149.941406 15.773438 C 149.800781 15.84375 145.859375 18.207031 144.351562 22.9375 C 144.210938 23.367188 144.425781 23.796875 144.925781 23.941406 C 145.070312 24.011719 145.140625 24.011719 145.210938 24.011719 Z M 145.210938 24.011719 " fill-opacity="1" fill-rule="nonzero"/><path fill="#ffffff" d="M 208.203125 105.136719 C 208.203125 105.136719 203.117188 78.691406 192.652344 69.734375 C 182.191406 60.847656 130.308594 46.585938 130.308594 46.585938 L 150.660156 93.667969 C 150.660156 93.667969 128.445312 103.414062 124.574219 113.234375 C 120.058594 124.484375 118.554688 126.632812 118.554688 132.367188 C 118.554688 132.367188 120.273438 139.964844 125.578125 139.964844 C 130.878906 139.964844 136.683594 139.605469 141.628906 134.589844 C 143.707031 132.4375 146.144531 127.351562 146.144531 127.351562 L 160.691406 123.195312 C 160.691406 123.195312 174.378906 120.613281 180.398438 110.867188 C 181.976562 108.359375 182.476562 105.207031 182.476562 105.207031 Z M 208.203125 105.136719 " fill-opacity="1" fill-rule="nonzero"/><g clip-path="url(#042550236a)"><path fill="#ffffff" d="M 125.503906 140.75 C 119.628906 140.75 117.765625 132.867188 117.695312 132.511719 C 117.695312 127.636719 118.625 125.273438 121.277344 118.964844 C 121.992188 117.246094 122.78125 115.3125 123.785156 112.875 C 127.441406 103.773438 145.570312 95.03125 149.585938 93.238281 L 129.519531 46.945312 C 129.375 46.660156 129.445312 46.300781 129.660156 46.085938 C 129.875 45.871094 130.164062 45.800781 130.523438 45.800781 C 132.671875 46.371094 182.765625 60.203125 193.226562 69.089844 C 203.761719 78.046875 208.847656 103.84375 208.992188 104.921875 C 209.0625 105.136719 208.992188 105.421875 208.847656 105.566406 C 208.707031 105.78125 208.492188 105.851562 208.203125 105.851562 L 183.050781 105.851562 C 182.835938 106.925781 182.191406 109.21875 180.972656 111.15625 C 174.808594 121.117188 161.335938 123.769531 160.761719 123.839844 L 146.644531 127.851562 C 146.074219 129.070312 143.996094 133.082031 142.132812 135.019531 C 137.113281 140.320312 131.167969 140.75 125.503906 140.75 Z M 119.34375 132.367188 C 119.34375 132.367188 120.992188 139.175781 125.503906 139.175781 C 131.023438 139.175781 136.398438 138.746094 140.914062 134.015625 C 142.847656 132.007812 145.285156 126.992188 145.285156 126.992188 C 145.355469 126.777344 145.570312 126.632812 145.785156 126.5625 L 160.332031 122.40625 C 160.546875 122.335938 173.804688 119.753906 179.539062 110.4375 C 180.972656 108.074219 181.472656 105.0625 181.472656 105.0625 C 181.546875 104.632812 181.902344 104.347656 182.261719 104.347656 L 207.058594 104.347656 C 206.054688 99.546875 200.964844 78.046875 192.007812 70.449219 C 182.835938 62.640625 140.554688 50.457031 131.597656 47.949219 L 151.304688 93.453125 C 151.445312 93.882812 151.304688 94.386719 150.875 94.53125 C 150.660156 94.601562 128.945312 104.277344 125.21875 113.589844 C 124.289062 115.957031 123.425781 117.964844 122.710938 119.683594 C 120.203125 125.847656 119.34375 127.996094 119.34375 132.367188 Z M 119.34375 132.367188 " fill-opacity="1" fill-rule="nonzero"/></g><path fill="#ffffff" d="M 110.601562 107.355469 L 97.269531 97.109375 L 85.015625 61.351562 C 85.015625 61.351562 73.835938 74.320312 70.539062 89.871094 C 67.171875 105.421875 72.332031 113.160156 78.996094 115.167969 C 85.589844 117.175781 91.894531 116.601562 91.894531 116.601562 C 91.894531 116.601562 98.34375 125.488281 105.941406 122.550781 C 112.390625 120.042969 114.613281 112.730469 110.601562 107.355469 Z M 110.601562 107.355469 " fill-opacity="1" fill-rule="nonzero"/><path fill="#ffffff" d="M 102.714844 123.984375 C 97.128906 123.984375 92.683594 118.894531 91.539062 117.460938 C 89.960938 117.53125 84.515625 117.75 78.710938 115.957031 C 75.484375 114.953125 65.308594 110.152344 69.679688 89.65625 C 72.976562 74.175781 84.226562 60.992188 84.371094 60.847656 C 84.585938 60.632812 84.871094 60.488281 85.160156 60.5625 C 85.445312 60.632812 85.660156 60.847656 85.804688 61.136719 L 97.988281 96.609375 L 111.101562 106.710938 C 111.171875 106.785156 111.246094 106.785156 111.246094 106.855469 C 113.25 109.578125 113.894531 112.945312 112.964844 116.101562 C 112.03125 119.394531 109.523438 121.976562 106.15625 123.335938 C 105.011719 123.769531 103.863281 123.984375 102.714844 123.984375 Z M 91.894531 115.742188 C 92.183594 115.742188 92.398438 115.886719 92.539062 116.101562 C 92.613281 116.171875 98.703125 124.414062 105.582031 121.761719 C 108.449219 120.613281 110.601562 118.394531 111.386719 115.597656 C 112.105469 113.019531 111.601562 110.222656 109.953125 107.929688 L 96.769531 97.753906 C 96.625 97.683594 96.554688 97.539062 96.480469 97.394531 L 84.65625 62.996094 C 81.933594 66.4375 73.910156 77.472656 71.257812 90.015625 C 68.535156 102.914062 71.472656 112.015625 79.210938 114.378906 C 85.589844 116.316406 91.753906 115.742188 91.824219 115.742188 C 91.824219 115.742188 91.894531 115.742188 91.894531 115.742188 Z M 91.894531 115.742188 " fill-opacity="1" fill-rule="nonzero"/><path fill="#ffffff" d="M 93.617188 23.226562 C 87.023438 27.523438 78.421875 40.855469 76.203125 55.761719 C 74.195312 69.234375 75.699219 76.253906 80 83.921875 C 85.160156 93.167969 98.273438 99.902344 113.824219 99.902344 C 129.375 99.902344 134.75 100.335938 146.429688 97.46875 C 158.113281 94.601562 174.59375 82.707031 164.347656 59.703125 C 164.347656 59.703125 162.625 34.476562 148.367188 23.296875 C 141.484375 18.710938 136.972656 15.128906 123.714844 14.625 C 110.457031 14.050781 98.847656 19.785156 93.617188 23.226562 Z M 93.617188 23.226562 " fill-opacity="1" fill-rule="nonzero"/><path fill="#ffffff" d="M 122.855469 100.691406 C 121.636719 100.691406 120.347656 100.691406 118.914062 100.691406 L 113.824219 100.691406 C 98.632812 100.691406 84.730469 94.097656 79.28125 84.28125 C 75.269531 77.042969 73.335938 70.019531 75.414062 55.617188 C 77.5625 40.78125 86.164062 27.167969 93.1875 22.507812 C 100.066406 17.921875 111.746094 13.191406 123.714844 13.695312 C 136.398438 14.195312 141.269531 17.492188 147.503906 21.648438 L 148.796875 22.507812 C 162.839844 33.542969 164.917969 57.121094 165.136719 59.414062 C 169.148438 68.445312 169.433594 76.542969 166.066406 83.492188 C 161.980469 91.804688 153.382812 96.535156 146.644531 98.183594 C 137.472656 100.476562 132.171875 100.691406 122.855469 100.691406 Z M 93.617188 23.226562 L 94.046875 23.941406 C 87.308594 28.386719 79.066406 41.570312 76.988281 55.902344 C 74.910156 69.949219 76.703125 76.398438 80.644531 83.566406 C 85.875 92.882812 99.132812 99.117188 113.753906 99.117188 L 118.839844 99.117188 C 130.523438 99.117188 135.96875 99.1875 146.144531 96.679688 C 152.523438 95.101562 160.691406 90.660156 164.488281 82.847656 C 167.644531 76.328125 167.355469 68.660156 163.488281 60.058594 C 163.414062 59.988281 163.414062 59.84375 163.414062 59.773438 C 163.414062 59.558594 161.550781 34.761719 147.792969 23.941406 L 146.574219 23.152344 C 140.339844 18.996094 135.824219 15.988281 123.640625 15.484375 C 108.738281 14.699219 96.410156 22.367188 94.117188 23.871094 Z M 93.617188 23.226562 " fill-opacity="1" fill-rule="nonzero"/><path fill="#ffffff" d="M 110.601562 85 C 110.601562 85 114.972656 87.003906 117.050781 82.273438 Z M 110.601562 85 " fill-opacity="1" fill-rule="nonzero"/><path fill="#ffffff" d="M 112.75 86.214844 C 111.386719 86.214844 110.382812 85.714844 110.3125 85.714844 C 109.882812 85.5 109.738281 85.070312 109.882812 84.640625 C 110.097656 84.210938 110.527344 83.996094 110.957031 84.210938 C 110.957031 84.210938 112.535156 84.925781 114.039062 84.351562 C 114.972656 83.996094 115.757812 83.207031 116.332031 81.917969 C 116.476562 81.488281 116.976562 81.273438 117.40625 81.488281 C 117.835938 81.703125 117.980469 82.132812 117.835938 82.5625 C 117.121094 84.210938 116.046875 85.285156 114.613281 85.859375 C 113.96875 86.144531 113.324219 86.214844 112.75 86.214844 Z M 112.75 86.214844 " fill-opacity="1" fill-rule="nonzero"/><path fill="#ffffff" d="M 121.777344 93.097656 C 121.777344 93.097656 116.761719 92.667969 114.613281 85 Z M 121.777344 93.097656 " fill-opacity="1" fill-rule="nonzero"/><path fill="#ffffff" d="M 121.777344 93.957031 C 121.707031 93.957031 121.707031 93.957031 121.777344 93.957031 C 121.492188 93.957031 116.117188 93.382812 113.824219 85.285156 C 113.679688 84.855469 113.96875 84.425781 114.398438 84.28125 C 114.898438 84.210938 115.257812 84.425781 115.402344 84.855469 C 117.335938 91.804688 121.636719 92.308594 121.851562 92.378906 C 122.28125 92.453125 122.640625 92.808594 122.566406 93.238281 C 122.566406 93.597656 122.207031 93.957031 121.777344 93.957031 Z M 121.777344 93.957031 " fill-opacity="1" fill-rule="nonzero"/><path fill="#ffffff" d="M 122.425781 61.351562 C 122.425781 61.609375 122.398438 61.863281 122.347656 62.117188 C 122.296875 62.371094 122.222656 62.617188 122.125 62.859375 C 122.023438 63.097656 121.902344 63.324219 121.757812 63.539062 C 121.617188 63.753906 121.453125 63.953125 121.269531 64.136719 C 121.085938 64.320312 120.886719 64.484375 120.671875 64.628906 C 120.457031 64.769531 120.230469 64.890625 119.992188 64.992188 C 119.75 65.089844 119.503906 65.164062 119.25 65.214844 C 118.996094 65.265625 118.742188 65.292969 118.484375 65.292969 C 118.222656 65.292969 117.96875 65.265625 117.714844 65.214844 C 117.460938 65.164062 117.214844 65.089844 116.972656 64.992188 C 116.734375 64.890625 116.507812 64.769531 116.292969 64.628906 C 116.078125 64.484375 115.878906 64.320312 115.695312 64.136719 C 115.511719 63.953125 115.347656 63.753906 115.207031 63.539062 C 115.0625 63.324219 114.941406 63.097656 114.839844 62.859375 C 114.742188 62.617188 114.667969 62.371094 114.617188 62.117188 C 114.566406 61.863281 114.542969 61.609375 114.542969 61.351562 C 114.542969 61.089844 114.566406 60.835938 114.617188 60.582031 C 114.667969 60.328125 114.742188 60.082031 114.839844 59.839844 C 114.941406 59.601562 115.0625 59.375 115.207031 59.160156 C 115.347656 58.945312 115.511719 58.746094 115.695312 58.5625 C 115.878906 58.378906 116.078125 58.214844 116.292969 58.074219 C 116.507812 57.929688 116.734375 57.808594 116.972656 57.707031 C 117.214844 57.609375 117.460938 57.535156 117.714844 57.484375 C 117.96875 57.433594 118.222656 57.410156 118.484375 57.410156 C 118.742188 57.410156 118.996094 57.433594 119.25 57.484375 C 119.503906 57.535156 119.75 57.609375 119.992188 57.707031 C 120.230469 57.808594 120.457031 57.929688 120.671875 58.074219 C 120.886719 58.214844 121.085938 58.378906 121.269531 58.5625 C 121.453125 58.746094 121.617188 58.945312 121.757812 59.160156 C 121.902344 59.375 122.023438 59.601562 122.125 59.839844 C 122.222656 60.082031 122.296875 60.328125 122.347656 60.582031 C 122.398438 60.835938 122.425781 61.089844 122.425781 61.351562 Z M 122.425781 61.351562 " fill-opacity="1" fill-rule="nonzero"/><path fill="#ffffff" d="M 162.625 61.351562 C 162.625 61.609375 162.601562 61.863281 162.550781 62.117188 C 162.5 62.371094 162.425781 62.617188 162.328125 62.859375 C 162.226562 63.097656 162.105469 63.324219 161.960938 63.539062 C 161.820312 63.753906 161.65625 63.953125 161.472656 64.136719 C 161.289062 64.320312 161.089844 64.484375 160.875 64.628906 C 160.660156 64.769531 160.433594 64.890625 160.195312 64.992188 C 159.953125 65.089844 159.707031 65.164062 159.453125 65.214844 C 159.199219 65.265625 158.945312 65.292969 158.683594 65.292969 C 158.425781 65.292969 158.171875 65.265625 157.917969 65.214844 C 157.664062 65.164062 157.414062 65.089844 157.175781 64.992188 C 156.9375 64.890625 156.710938 64.769531 156.496094 64.628906 C 156.28125 64.484375 156.082031 64.320312 155.898438 64.136719 C 155.714844 63.953125 155.550781 63.753906 155.40625 63.539062 C 155.265625 63.324219 155.144531 63.097656 155.042969 62.859375 C 154.945312 62.617188 154.871094 62.371094 154.820312 62.117188 C 154.769531 61.863281 154.742188 61.609375 154.742188 61.351562 C 154.742188 61.089844 154.769531 60.835938 154.820312 60.582031 C 154.871094 60.328125 154.945312 60.082031 155.042969 59.839844 C 155.144531 59.601562 155.265625 59.375 155.40625 59.160156 C 155.550781 58.945312 155.714844 58.746094 155.898438 58.5625 C 156.082031 58.378906 156.28125 58.214844 156.496094 58.074219 C 156.710938 57.929688 156.9375 57.808594 157.175781 57.707031 C 157.414062 57.609375 157.664062 57.535156 157.917969 57.484375 C 158.171875 57.433594 158.425781 57.410156 158.683594 57.410156 C 158.945312 57.410156 159.199219 57.433594 159.453125 57.484375 C 159.707031 57.535156 159.953125 57.609375 160.195312 57.707031 C 160.433594 57.808594 160.660156 57.929688 160.875 58.074219 C 161.089844 58.214844 161.289062 58.378906 161.472656 58.5625 C 161.65625 58.746094 161.820312 58.945312 161.960938 59.160156 C 162.105469 59.375 162.226562 59.601562 162.328125 59.839844 C 162.425781 60.082031 162.5 60.328125 162.550781 60.582031 C 162.601562 60.835938 162.625 61.089844 162.625 61.351562 Z M 162.625 61.351562 " fill-opacity="1" fill-rule="nonzero"/><path fill="#ffffff" d="M 103.433594 21.648438 C 103.433594 21.648438 102.5 17.207031 99.992188 13.835938 C 96.625 9.324219 90.820312 5.953125 85.015625 9.679688 C 77.5625 14.484375 79.785156 22.007812 83.367188 26.953125 C 85.734375 30.175781 89.101562 32.039062 89.101562 32.039062 Z M 103.433594 21.648438 " fill-opacity="1" fill-rule="nonzero"/><path fill="#ffffff" d="M 89.101562 32.898438 C 88.957031 32.898438 88.8125 32.898438 88.671875 32.828125 C 88.527344 32.757812 85.085938 30.820312 82.652344 27.453125 C 79.929688 23.65625 78.710938 19.5 79.355469 16.128906 C 79.929688 13.265625 81.648438 10.898438 84.515625 9.035156 C 90.890625 4.953125 97.128906 8.820312 100.566406 13.40625 C 103.21875 16.917969 104.148438 21.363281 104.148438 21.578125 C 104.222656 22.007812 103.933594 22.4375 103.503906 22.582031 C 103.074219 22.652344 102.644531 22.367188 102.5 21.933594 C 102.5 21.863281 101.570312 17.636719 99.207031 14.410156 C 96.125 10.109375 90.820312 6.886719 85.445312 10.324219 C 82.9375 11.902344 81.433594 13.980469 81.003906 16.347656 C 80.429688 19.355469 81.503906 23.011719 84.011719 26.449219 C 86.234375 29.53125 89.460938 31.324219 89.53125 31.324219 C 89.960938 31.539062 90.105469 32.039062 89.890625 32.46875 C 89.675781 32.757812 89.386719 32.898438 89.101562 32.898438 Z M 89.101562 32.898438 " fill-opacity="1" fill-rule="nonzero"/><path fill="#ffffff" d="M 89.746094 16.5625 C 89.746094 16.5625 93.542969 18.78125 94.976562 23.226562 Z M 89.746094 16.5625 " fill-opacity="1" fill-rule="nonzero"/><path fill="#ffffff" d="M 94.90625 24.011719 C 94.546875 24.011719 94.261719 23.796875 94.117188 23.441406 C 92.828125 19.355469 89.316406 17.207031 89.316406 17.207031 C 88.886719 16.992188 88.8125 16.488281 89.027344 16.058594 C 89.246094 15.699219 89.746094 15.558594 90.175781 15.773438 C 90.320312 15.84375 94.261719 18.207031 95.765625 22.9375 C 95.910156 23.367188 95.695312 23.796875 95.191406 23.941406 C 95.121094 24.011719 95.050781 24.011719 94.90625 24.011719 Z M 94.90625 24.011719 " fill-opacity="1" fill-rule="nonzero"/><path fill="#ffffff" d="M 160.621094 67.585938 C 160.621094 70.738281 156.964844 74.390625 152.449219 74.390625 C 147.9375 74.390625 144.28125 70.738281 144.28125 67.585938 C 144.28125 64.429688 147.9375 62.925781 152.449219 62.925781 C 156.964844 62.996094 160.621094 64.429688 160.621094 67.585938 Z M 160.621094 67.585938 " fill-opacity="1" fill-rule="nonzero"/><path fill="#ffffff" d="M 154.027344 91.304688 C 153.597656 91.304688 153.238281 90.945312 153.238281 90.515625 L 153.238281 74.25 C 153.238281 73.820312 153.597656 73.460938 154.027344 73.460938 C 154.457031 73.460938 154.816406 73.820312 154.816406 74.25 L 154.816406 90.445312 C 154.886719 90.945312 154.457031 91.304688 154.027344 91.304688 Z M 154.027344 91.304688 " fill-opacity="1" fill-rule="nonzero"/><path fill="#ffffff" d="M 182.835938 104.417969 C 183.765625 102.84375 184.195312 98.113281 184.554688 96.320312 Z M 182.835938 104.417969 " fill-opacity="1" fill-rule="nonzero"/><path fill="#ffffff" d="M 182.835938 105.207031 C 182.691406 105.207031 182.546875 105.136719 182.40625 105.0625 C 182.046875 104.847656 181.902344 104.347656 182.117188 103.917969 C 182.765625 102.84375 183.195312 99.902344 183.410156 97.898438 C 183.480469 97.179688 183.625 96.535156 183.695312 96.105469 C 183.765625 95.675781 184.195312 95.390625 184.628906 95.460938 C 185.058594 95.53125 185.34375 95.960938 185.273438 96.394531 C 185.199219 96.824219 185.128906 97.46875 184.984375 98.113281 C 184.628906 100.476562 184.269531 103.414062 183.480469 104.707031 C 183.410156 105.0625 183.121094 105.207031 182.835938 105.207031 Z M 182.835938 105.207031 " fill-opacity="1" fill-rule="nonzero"/></svg>